<svg xmlns="http://www.w3.org/2000/svg" width="24" height="24" viewBox="0 0 24 24"><g fill="none" stroke="#d5cec6" stroke-linecap="round" stroke-linejoin="round" stroke-width="2"><path d="M12.22 2h-.44a2 2 0 0 0-1.97 1.68l-.13.76a2 2 0 0 1-1.43 1.54l-.74.22a2 2 0 0 1-1.85-.3l-.61-.41a2 2 0 0 0-2.54.24l-.3.31a2 2 0 0 0-.24 2.54l.41.61a2 2 0 0 1 .3 1.85l-.22.74a2 2 0 0 1-1.54 1.43l-.76.13A2 2 0 0 0 2 11.78v.44a2 2 0 0 0 1.68 1.97l.76.13a2 2 0 0 1 1.54 1.43l.22.74a2 2 0 0 1-.3 1.85l-.41.61a2 2 0 0 0 .24 2.54l.31.3a2 2 0 0 0 2.54.24l.61-.41a2 2 0 0 1 1.85-.3l.74.22a2 2 0 0 1 1.43 1.54l.13.76A2 2 0 0 0 11.78 22h.44a2 2 0 0 0 1.97-1.68l.13-.76a2 2 0 0 1 1.43-1.54l.74-.22a2 2 0 0 1 1.85.3l.61.41a2 2 0 0 0 2.54-.24l.3-.31a2 2 0 0 0 .24-2.54l-.41-.61a2 2 0 0 1-.3-1.85l.22-.74a2 2 0 0 1 1.54-1.43l.76-.13A2 2 0 0 0 22 12.22v-.44a2 2 0 0 0-1.68-1.97l-.76-.13a2 2 0 0 1-1.54-1.43l-.22-.74a2 2 0 0 1 .3-1.85l.41-.61a2 2 0 0 0-.24-2.54l-.31-.3a2 2 0 0 0-2.54-.24l-.61.41a2 2 0 0 1-1.85.3l-.74-.22a2 2 0 0 1-1.43-1.54l-.13-.76A2 2 0 0 0 12.22 2z"/><circle cx="12" cy="12" r="3"/></g></svg>
